<?xml version="1.0" standalone="no"?>
<!DOCTYPE svg PUBLIC "-//W3C//DTD SVG 20010904//EN"
 "http://www.w3.org/TR/2001/REC-SVG-20010904/DTD/svg10.dtd">
<svg version="1.0" xmlns="http://www.w3.org/2000/svg"
 width="500.000000pt" height="500.000000pt" viewBox="0 0 500.000000 500.000000"
 preserveAspectRatio="xMidYMid meet">

<g transform="translate(0.000000,500.000000) scale(0.100000,-0.100000)"
fill="#000000" stroke="none">
<path d="M3783 4890 c-133 -35 -201 -82 -308 -212 -134 -163 -156 -188 -166
-188 -5 0 -26 15 -46 34 -50 44 -103 70 -210 103 -76 23 -106 27 -223 27 -165
1 -176 -2 -555 -155 -148 -61 -409 -167 -580 -236 -170 -68 -362 -146 -425
-173 -63 -26 -209 -87 -324 -134 -248 -103 -330 -144 -412 -202 -123 -87 -233
-233 -275 -364 -25 -76 -44 -370 -34 -512 11 -165 27 -200 288 -618 104 -168
248 -399 320 -515 71 -115 156 -250 187 -300 179 -282 415 -672 485 -800 62
-114 115 -184 185 -242 75 -63 195 -123 295 -149 93 -24 294 -24 383 -1 57 15
346 135 717 297 163 71 874 355 1150 460 105 39 217 86 250 103 81 43 191 155
233 238 34 67 40 105 58 389 10 148 -23 257 -116 378 l-40 52 6 133 c8 166 -7
300 -39 365 -20 40 -319 503 -478 740 -27 40 -49 81 -49 91 0 10 23 46 51 81
114 142 213 314 258 446 22 67 47 379 39 499 -10 158 -147 307 -337 365 -80
25 -192 25 -288 0z m261 -247 c87 -62 109 -138 61 -220 -14 -23 -30 -43 -34
-43 -5 0 -31 14 -57 31 -27 16 -98 59 -159 95 -60 36 -109 70 -107 77 4 18 52
56 97 78 58 29 144 21 199 -18z m-1132 -224 c93 -20 181 -74 219 -135 11 -19
18 -41 15 -49 -3 -8 -37 -52 -75 -98 -203 -240 -305 -366 -322 -400 -13 -25
-25 -82 -34 -160 -8 -67 -22 -172 -31 -234 -16 -105 -16 -113 0 -137 22 -35
46 -34 225 14 203 54 313 92 459 157 130 59 179 92 237 161 20 23 42 42 48 42
19 0 68 -66 195 -257 65 -98 189 -284 275 -415 87 -130 165 -253 174 -275 22
-53 21 -138 -4 -193 -23 -52 -91 -119 -154 -151 -24 -12 -111 -48 -194 -80
-82 -31 -172 -67 -200 -78 -27 -11 -113 -45 -190 -75 -77 -30 -221 -86 -321
-125 -99 -38 -216 -83 -260 -99 -91 -34 -429 -164 -554 -215 -47 -19 -132 -51
-190 -72 -245 -89 -359 -161 -456 -290 -31 -41 -59 -75 -63 -75 -4 0 -15 17
-26 38 -10 20 -29 51 -40 67 -28 38 -204 322 -221 355 -7 14 -71 114 -141 222
-70 109 -156 244 -191 300 -35 57 -91 146 -124 198 -34 52 -94 149 -135 215
-41 66 -96 154 -123 195 -198 311 -210 337 -210 441 0 169 123 345 308 441 48
25 256 114 462 196 206 83 499 201 650 262 579 235 720 291 772 304 65 18 150
20 220 5z m827 -104 c83 -49 151 -94 151 -100 0 -23 -307 -420 -436 -563 l-30
-34 -92 68 c-50 38 -120 81 -154 95 -35 14 -64 32 -66 41 -2 8 21 44 50 78 29
35 87 107 128 160 126 164 283 351 291 348 4 -2 76 -43 158 -93z m-716 -651
c94 -48 250 -155 240 -165 -5 -5 -61 -22 -125 -39 -64 -16 -140 -38 -169 -50
-35 -13 -57 -16 -63 -10 -12 12 44 290 59 290 3 0 29 -12 58 -26z m951 -65
c10 -17 14 -29 8 -26 -5 4 -20 24 -32 44 -12 20 -16 32 -8 26 7 -6 22 -26 32
-44z m450 -1590 c59 -65 67 -93 35 -124 -13 -12 -98 -51 -189 -85 -91 -35
-194 -77 -230 -93 -71 -32 -234 -98 -465 -187 -82 -32 -267 -105 -410 -162
-143 -58 -277 -111 -299 -118 -21 -7 -84 -32 -140 -57 -198 -86 -325 -133
-365 -133 -34 0 -45 6 -80 46 -24 28 -41 57 -41 71 0 37 49 77 121 97 34 9 74
25 88 35 86 61 264 128 431 162 88 19 162 48 321 129 52 27 142 56 249 82 25
6 61 23 80 38 70 55 157 105 240 138 283 112 554 210 587 211 13 1 38 -17 67
-50z m51 -319 c-12 -39 -67 -91 -129 -122 -33 -17 -186 -81 -341 -144 -413
-166 -757 -306 -870 -354 -55 -23 -158 -66 -230 -95 -71 -29 -195 -81 -275
-115 -80 -34 -170 -73 -201 -86 -69 -29 -163 -54 -206 -54 -85 0 -209 45 -253
92 -39 41 -60 95 -60 150 0 68 44 165 91 201 46 33 114 67 138 67 16 0 18 -4
11 -32 -4 -18 -15 -50 -24 -72 -9 -21 -16 -56 -16 -78 0 -73 39 -120 134 -164
71 -32 136 -30 212 9 58 29 362 154 624 256 102 40 226 90 277 111 50 21 176
72 280 113 103 41 287 116 408 167 121 51 265 110 319 131 54 21 101 41 104
44 10 10 14 -4 7 -25z"/>
<path d="M2470 3921 c-107 -44 -235 -96 -285 -116 -49 -20 -162 -66 -250 -101
-237 -96 -256 -106 -277 -139 -21 -35 -22 -54 -7 -88 12 -27 47 -47 83 -47 13
0 111 37 217 81 107 45 295 123 418 174 123 51 239 104 257 118 28 23 114 166
114 189 0 25 -92 1 -270 -71z"/>
<path d="M2310 3503 c-77 -26 -402 -161 -427 -177 -56 -36 -70 -111 -27 -145
40 -32 81 -26 211 30 65 28 163 69 218 90 138 54 146 60 162 96 18 45 17 60
-12 88 -18 19 -34 25 -67 24 -24 0 -50 -3 -58 -6z"/>
<path d="M996 3365 c-63 -24 -107 -64 -133 -122 -28 -60 -26 -96 7 -150 29
-49 91 -76 175 -77 93 -1 153 22 204 81 72 81 78 151 17 214 -56 57 -191 84
-270 54z"/>
<path d="M3385 3253 c-11 -3 -69 -25 -130 -50 -60 -25 -180 -73 -265 -108
-577 -235 -758 -314 -781 -343 -19 -25 -26 -86 -11 -108 23 -35 94 -44 145
-17 44 22 812 345 1009 423 139 56 176 76 193 110 20 39 19 47 -10 75 -20 21
-33 25 -77 24 -29 -1 -62 -4 -73 -6z"/>
<path d="M2211 3118 c-160 -62 -201 -93 -201 -156 0 -31 5 -43 25 -56 49 -32
111 -18 312 75 69 31 85 43 100 74 19 40 14 56 -28 87 -44 32 -69 29 -208 -24z"/>
<path d="M3570 2983 c-27 -10 -309 -125 -875 -360 -33 -14 -94 -38 -135 -55
-41 -16 -96 -41 -122 -55 -79 -43 -96 -115 -36 -157 34 -24 85 -19 163 15 165
72 608 257 825 346 129 52 252 104 272 114 102 52 74 161 -40 158 -20 0 -44
-3 -52 -6z"/>
<path d="M1388 2755 c-146 -54 -196 -209 -96 -302 56 -52 179 -69 269 -38 81
29 148 117 149 196 0 87 -101 160 -219 158 -36 0 -83 -7 -103 -14z"/>
<path d="M3695 2686 c-73 -28 -371 -150 -630 -258 -104 -44 -252 -104 -327
-135 -100 -40 -144 -63 -163 -84 -39 -47 -33 -99 16 -124 44 -23 76 -18 194
31 430 177 580 238 825 336 237 94 274 118 286 175 5 26 1 37 -19 57 -34 34
-98 34 -182 2z"/>
<path d="M1742 2129 c-91 -46 -143 -141 -121 -221 40 -149 287 -189 405 -66
72 75 84 157 34 226 -43 60 -79 75 -185 79 -77 4 -96 1 -133 -18z"/>
</g>
</svg>
